# xmcd
#
# Track frame offsets:
#	150
#	16986
#	35466
#	57617
#	76761
#	94641
#	113107
#	134079
#	153485
#	172368
#	193302
#	215138
#	242855
#	268157
#
# Disc length: 3815 seconds
#
# Revision: 0
# Processed by: cddbd v1.5.2PL0 Copyright (c) Steve Scherf et al.
# Submitted via: audiograbber 1.83.01
#
DISCID=d50ee50e
DTITLE=Chris Stapleton - Traveller
DYEAR=2015
DGENRE=Country
TTITLE0=Traveller
TTITLE1=Fire Away
TTITLE2=Tennessee Whiskey
TTITLE3=Parachute
TTITLE4=Whiskey And Ymu
TTITLE5=Nobody To Blame
TTITLE6=More Of You
TTITLE7=When The Stars Come Out
TTITLE8=Daddy Doesn't Pray Anymore
TTITLE9=Might As Well Get Stoned
TTITLE10=Was It 26
TTITLE11=The Devil Named Music
TTITLE12=Outlaw State Of Mind
TTITLE13=Sometimes I Cry
EXTD=
EXTT0=
EXTT1=
EXTT2=
EXTT3=
EXTT4=
EXTT5=
EXTT6=
EXTT7=
EXTT8=
EXTT9=
EXTT10=
EXTT11=
EXTT12=
EXTT13=
PLAYORDER=
